# xmcd CD database file
#
# Track frame offsets:
#	150
#	30633
#	63828
#	108478
#	130452
#	163978
#	193796
#	211085
#	235731
#
# Disc length: 3574 seconds
#
# Revision: 0
# Processed by: cddbd v1.5.1PL2 Copyright (c) Steve Scherf et al.
# Submitted via: CDex 1.51
#
DISCID=7c0df409
DTITLE=Franco D'Andrea - Current Changes
DYEAR=1993
DGENRE=Jazz
TTITLE0=Dixie-Rag I
TTITLE1=Blue francis
TTITLE2=Yaounde'
TTITLE3=Lychees
TTITLE4=Colours From The '70s
TTITLE5=Chromatic Spaces
TTITLE6=Sketch in Blue
TTITLE7='Phone Calls
TTITLE8=Dixie-Rag II
EXTD=YEAR: 1993
EXTT0=
EXTT1=
EXTT2=
EXTT3=
EXTT4=
EXTT5=
EXTT6=
EXTT7=
EXTT8=
PLAYORDER=
